# xmcd CD database file
#
# Track frame offsets:
#	150
#	15703
#	35609
#	55406
#	65634
#	88122
#	111048
#	131202
#	150131
#	166272
#	181524
#	203248
#	222205
#	240208
#
# Disc length: 3446 seconds
#
# Revision: 0
# Processed by: cddbd v1.5.2PL0 Copyright (c) Steve Scherf et al.
# Submitted via: CDex 1.70beta2
#
DISCID=b30d740e
DTITLE=Larry Braggs - Jus' Sangin'
DYEAR=2011
DGENRE=Jazz
TTITLE0=I want you
TTITLE1=Didn't I (blow your mind this time)
TTITLE2=These three words
TTITLE3=Busted
TTITLE4=You make me feel brand new
TTITLE5=Fly like an eagle
TTITLE6=New day
TTITLE7=A song for you
TTITLE8=Blueberry Hill
TTITLE9=Work to do
TTITLE10=A house is not a home
TTITLE11=Calling you
TTITLE12=Love's in need of love today
TTITLE13=People get ready
EXTD=YEAR: 2011
EXTT0=
EXTT1=
EXTT2=
EXTT3=
EXTT4=
EXTT5=
EXTT6=
EXTT7=
EXTT8=
EXTT9=
EXTT10=
EXTT11=
EXTT12=
EXTT13=
PLAYORDER=
